{
.appVersion = "3151";
.formatVersion = 3;
customParameters = (
{
name = vendorID;
value = ADBO;
},
{
name = panose;
value = (
2,
11,
2,
0,
0,
0,
0,
0,
0,
0
);
},
{
name = unicodeRanges;
value = (
0,
1,
7,
29,
36,
42,
43,
44,
45,
48,
49,
50,
51,
52,
54,
55,
57,
59,
61,
65,
66,
68
);
},
{
name = codePageRanges;
value = (
"1252",
"1250",
"1251",
"1258",
"932",
"936",
"bit 29",
"bit 30"
);
},
{
name = fsType;
value = (
);
}
);
date = "2021-04-29 08:43:11 +0000";
familyName = "Yaku Han JP";
featurePrefixes = (
{
automatic = 1;
code = "languagesystem DFLT dflt;
";
name = Languagesystems;
}
);
features = (
{
automatic = 1;
code = "feature vert;
feature vrt2;
";
tag = aalt;
},
{
code = "sub comma-han by comma-han.vert;
sub period-han by period-han.vert;
sub colon.full by colon.full.vert;
sub blacklenticularbracketleft by blacklenticularbracketleft.vert;
sub blacklenticularbracketright by blacklenticularbracketright.vert;
sub cornerbracketleft by cornerbracketleft.vert;
sub cornerbracketright by cornerbracketright.vert;
sub dblanglebracketleft by dblanglebracketleft.vert;
sub dblanglebracketright by dblanglebracketright.vert;
sub tortoiseshellbracketleft by tortoiseshellbracketleft.vert;
sub tortoiseshellbracketright by tortoiseshellbracketright.vert;
sub whitecornerbracketleft by whitecornerbracketleft.vert;
sub whitecornerbracketright by whitecornerbracketright.vert;
sub whitelenticularbracketleft by whitelenticularbracketleft.vert;
sub whitelenticularbracketright by whitelenticularbracketright.vert;
sub braceleft.full by braceleft.full.vert;
sub braceright.full by braceright.full.vert;
sub bracketleft.full by bracketleft.full.vert;
sub bracketright.full by bracketright.full.vert;
sub parenleft.full by parenleft.full.vert;
sub parenright.full by parenright.full.vert;
sub angleLeft by anglebracketleft.vert;
sub angleRight by anglebracketright.vert;";
tag = vert;
},
{
automatic = 1;
code = "sub comma-han by comma-han.vert;
sub period-han by period-han.vert;

glyphs = (
{
glyphname = .notdef;
lastChange = "2023-08-27 12:31:32 +0000";
layers = (
{
layerId = m01;
shapes = (
{
closed = 1;
nodes = (
(900,880,l),
(100,880,l),
(100,-120,l),
(900,-120,l)
);
},
{
closed = 1;
nodes = (
(818,830,l),
(500,421,l),
(182,830,l)
);
},
{
closed = 1;
nodes = (
(850,-29,l),
(532,380,l),
(850,789,l)
);
},
{
closed = 1;
nodes = (
(818,-70,l),
(182,-70,l),
(500,339,l)
);
},
{
closed = 1;
nodes = (
(150,-29,l),
(150,789,l),
(468,380,l)
);
}
);
vertWidth = 1000;
width = 1000;
}
);
note = ".notdef";
},
{
glyphname = "comma-han";
lastChange = "2023-08-27 13:37:45 +0000";
layers = (
{
layerId = m01;
shapes = (
{
closed = 1;
nodes = (
(294,29,o),
(216,110,o),
(137,184,o),
(100,213,q),
(59,176,l),
(95,147,o),
(173,74,o),
(250,-7,o),
(284,-48,q),
(329,-10,l)
);
}
);
vertWidth = 1000;
width = 529;
}
);
note = uni3001;
unicode = 12289;
},
{
glyphname = "comma-han.vert";
lastChange = "2023-08-27 13:38:27 +0000";
layers = (
{
layerId = m01;
shapes = (
{
closed = 1;
nodes = (
(907,636,o),
(830,715,o),
(752,788,o),
(717,816,q),
(676,779,l),
(728,738,o),
(848,619,o),
(897,558,q),
(941,596,l)
);
}
);
vertWidth = 522;
width = 1000;
}
);
note = uniFE11;
unicode = 65041;
},
{
glyphname = "period-han";
lastChange = "2023-08-27 13:37:49 +0000";
layers = (
{
layerId = m01;
shapes = (
{
closed = 1;
nodes = (
(88,202,o),
(48,136,o),
(48,95,qs),
(48,55,o),
(88,-12,o),
(155,-52,o),
(195,-52,qs),
(236,-52,o),
(302,-12,o),
(342,55,o),
(342,95,qs),
(342,136,o),
(302,202,o),
(236,242,o),
(195,242,qs),
(155,242,o)
);
},
{
closed = 1;
nodes = (
(116,15,o),
(86,65,o),
(86,95,qs),
(86,124,o),
(116,173,o),
(165,203,o),
(195,203,qs),
(225,203,o),
(274,173,o),
(303,124,o),
(303,95,qs),
(303,50,o),
(240,-13,o),
(195,-13,qs),
(165,-13,o)
);
}
);
vertWidth = 1000;
width = 742;
}
);
note = uni3002;
unicode = 12290;
},
{
glyphname = "period-han.vert";
lastChange = "2023-08-27 13:38:33 +0000";
layers = (
{
layerId = m01;
shapes = (
{
closed = 1;
nodes = (
(700,770,o),
(661,704,o),
(661,664,qs),
(661,624,o),
(700,559,o),
(767,520,o),
(806,520,qs),
(846,520,o),
(911,559,o),
(950,624,o),
(950,664,qs),
(950,704,o),
(911,770,o),
(846,809,o),
(806,809,qs),
(767,809,o)
);
},
{
closed = 1;
nodes = (
(728,586,o),
(700,635,o),
(700,664,qs),
(700,694,o),
(728,742,o),
(777,771,o),
(806,771,qs),
(835,771,o),
(884,742,o),
(913,694,o),
(913,664,qs),
(913,620,o),
(851,557,o),
(806,557,qs),
(777,557,o)
);
}
);
vertWidth = 760;
width = 1000;
}
);
note = uniFE12;
unicode = 65042;
},
{
glyphname = hyphenationpoint;
lastChange = "2023-08-27 13:37:55 +0000";
layers = (
{
layerId = m01;
shapes = (
{
closed = 1;
nodes = (
(176,448,o),
(150,406,o),
(150,380,qs),
(150,355,o),
(176,312,o),
(219,286,o),
(244,286,qs),
(270,286,o),
(312,312,o),
(338,355,o),
(338,380,qs),
(338,406,o),
(312,448,o),
(270,474,o),
(244,474,qs),
(219,474,o)
);
}
);
vertWidth = 1000;
width = 488;
}
);
note = uni2027;
unicode = (8231,12539);
},
{
glyphname = colon.full;
lastChange = "2023-08-27 13:37:55 +0000";
layers = (
{
layerId = m01;
shapes = (
{
closed = 1;
nodes = (
(278,594,o),
(278,624,qs),
(278,655,o),
(239,688,o),
(214,688,qs),
(189,688,o),
(150,655,o),
(150,624,qs),
(150,594,o),
(189,560,o),
(214,560,qs),
(239,560,o)
);
},
{
closed = 1;
nodes = (
(278,97,o),
(278,127,qs),
(278,158,o),
(239,191,o),
(214,191,qs),
(189,191,o),
(150,158,o),
(150,127,qs),
(150,97,o),
(189,64,o),
(214,64,qs),
(239,64,o)
);
}
);
vertWidth = 1000;
width = 428;
}
);
note = uniFF1A;
unicode = 65306;
},
{
glyphname = exclam.full;
lastChange = "2023-08-27 13:37:55 +0000";
layers = (
{
layerId = m01;
shapes = (
{
closed = 1;
nodes = (
(238,648,l),
(239,748,l),
(161,748,l),
(162,648,l),
(178,232,l),
(222,232,l)
);
},
{
closed = 1;
nodes = (
(250,25,o),
(250,50,qs),
(250,74,o),
(220,104,o),
(200,104,qs),
(180,104,o),
(150,74,o),
(150,50,qs),
(150,25,o),
(180,-2,o),
(200,-2,qs),
(220,-2,o)
);
}
);
vertWidth = 1000;
width = 400;
}
);
note = uniFF01;
unicode = 65281;
},
{
glyphname = question.full;
lastChange = "2023-08-27 13:37:55 +0000";
layers = (
{
layerId = m01;
shapes = (
{
closed = 1;
nodes = (
(393,272,o),
(417,333,o),
(468,384,o),
(528,432,o),
(583,483,o),
(619,544,o),
(619,582,qs),
(619,635,o),
(567,715,o),
(469,762,o),
(399,762,qs),
(318,762,o),
(201,700,o),
(150,649,q),
(187,615,l),
(234,665,o),
(339,712,o),
(394,712,qs),
(452,712,o),
(525,676,o),
(560,615,o),
(560,578,qs),
(560,548,o),
(524,496,o),
(470,448,o),
(410,399,o),
(361,344,o),
(338,275,o),
(347,232,q),
(401,232,l)
);
},
{
closed = 1;
nodes = (
(427,25,o),
(427,50,qs),
(427,74,o),
(396,104,o),
(377,104,qs),
(357,104,o),
(327,74,o),
(327,50,qs),
(327,25,o),
(357,-2,o),
(377,-2,qs),
(396,-2,o)
);
}
);
vertWidth = 1000;
width = 769;
}
);
note = uniFF1F;
unicode = 65311;
},
{
glyphname = semicolon.full;
lastChange = "2023-08-27 13:37:55 +0000";
layers = (
{
layerId = m01;
shapes = (
{
closed = 1;
nodes = (
(325,59,o),
(325,143,qs),
(325,191,o),
(288,248,o),
(253,248,qs),
(229,248,o),
(191,219,o),
(191,187,qs),
(191,156,o),
(226,126,o),
(253,126,qs),
(266,126,o),
(292,135,o),
(303,149,q),
(249,217,l),
(275,139,l),
(275,70,o),
(213,-20,o),
(150,-51,q),
(167,-87,l),
(238,-57,o)
);
},
{
closed = 1;
nodes = (
(311,594,o),
(311,624,qs),
(311,655,o),
(272,688,o),
(247,688,qs),
(222,688,o),
(183,655,o),
(183,624,qs),
(183,594,o),
(222,560,o),
(247,560,qs),
(272,560,o)
);
}
);
vertWidth = 1000;
width = 475;
}
);
note = uniFF1B;
unicode = 65307;
},
{
glyphname = colon.full.vert;
lastChange = "2023-08-27 13:38:40 +0000";
layers = (
{
layerId = m01;
shapes = (
{
closed = 1;
nodes = (
(316,635,o),
(316,666,qs),
(316,697,o),
(276,730,o),
(252,730,qs),
(227,730,o),
(188,697,o),
(188,666,qs),
(188,635,o),
(227,602,o),
(252,602,qs),
(276,602,o)
);
},
{
closed = 1;
nodes = (
(812,635,o),
(812,666,qs),
(812,697,o),
(773,730,o),
(748,730,qs),
(724,730,o),
(684,697,o),
(684,666,qs),
(684,635,o),
(724,602,o),
(748,602,qs),
(773,602,o)
);
}
);
vertWidth = 428;
width = 1000;
}
);
note = glyph17776;
},
{
glyphname = angleLeft;
lastChange = "2023-08-27 13:38:09 +0000";
layers = (
{
layerId = m01;
shapes = (
{
closed = 1;
nodes = (
(545,822,l),
(503,842,l),
(200,380,l),
(503,-82,l),
(545,-62,l),
(255,380,l)
);
}
);
vertWidth = 1000;
width = 596;
}
);
note = uni2329;
unicode = (9001,12296);
},
{
glyphname = angleRight;
lastChange = "2023-08-27 13:38:20 +0000";
layers = (
{
layerId = m01;
shapes = (
{
closed = 1;
nodes = (
(396,380,l),
(93,842,l),
(51,822,l),
(341,380,l),
(51,-62,l),
(93,-82,l)
);
}
);
vertWidth = 1000;
width = 596;
}
);
note = uni3009;
unicode = (9002,12297);
},
{
glyphname = blacklenticularbracketleft;
lastChange = "2023-08-27 13:38:09 +0000";
layers = (
{
layerId = m01;
shapes = (
{
closed = 1;
nodes = (
(200,842,l),
(200,-82,l),
(492,-82,l),
(492,-77,l),
(438,-31,o),
(348,106,o),
(294,280,o),
(294,380,qs),
(294,481,o),
(348,654,o),
(438,792,o),
(492,837,q),
(492,842,l)
);
}
);
vertWidth = 1000;
width = 530;
}
);
note = uni3010;
unicode = 12304;
},
{
glyphname = blacklenticularbracketright;
lastChange = "2023-08-27 13:38:20 +0000";
layers = (
{
layerId = m01;
shapes = (
{
closed = 1;
nodes = (
(38,842,l),
(38,837,l),
(93,792,o),
(182,654,o),
(236,481,o),
(236,380,qs),
(236,280,o),
(182,106,o),
(93,-31,o),
(38,-77,q),
(38,-82,l),
(330,-82,l),
(330,842,l)
);
}
);
vertWidth = 1000;
width = 530;
}
);
note = uni3011;
unicode = 12305;
},
{
glyphname = braceleft.full;
lastChange = "2023-08-27 13:38:09 +0000";
layers = (
{
layerId = m01;
shapes = (
{
closed = 1;
nodes = (
(448,-58,l),
(414,-58,ls),
(365,-58,o),
(332,-3,o),
(332,53,qs),
(332,106,o),
(339,203,o),
(339,262,qs),
(339,312,o),
(313,368,o),
(280,378,q),
(280,382,l),
(313,392,o),
(339,449,o),
(339,498,qs),
(339,557,o),
(332,654,o),
(332,707,qs),
(332,764,o),
(365,818,o),
(414,818,qs),
(448,818,l),
(448,854,l),
(408,854,ls),
(347,854,o),
(285,796,o),
(285,711,qs),
(285,672,o),
(289,598,o),
(294,526,o),
(294,487,qs),
(294,465,o),
(279,426,o),
(239,400,o),
(200,400,q),
(200,360,l),
(239,360,o),
(279,334,o),
(294,295,o),
(294,273,qs),
(294,236,o),
(289,163,o),
(285,89,o),
(285,49,qs),
(285,-35,o),
(347,-94,o),
(408,-94,qs),
(448,-94,l)
);
}
);
vertWidth = 1000;
width = 486;
}
);
note = uniFF5B;
unicode = 65371;
},
{
glyphname = braceright.full;
lastChange = "2023-08-27 13:38:20 +0000";
layers = (
{
layerId = m01;
shapes = (
{
closed = 1;
nodes = (
(38,-58,l),
(72,-58,ls),
(121,-58,o),
(154,-3,o),
(154,53,qs),
(154,106,o),
(147,203,o),
(147,262,qs),
(147,312,o),
(173,368,o),
(206,378,q),
(206,382,l),
(173,392,o),
(147,449,o),
(147,498,qs),
(147,557,o),
(154,654,o),
(154,707,qs),
(154,764,o),
(121,818,o),
(72,818,qs),
(38,818,l),
(38,854,l),
(78,854,ls),
(139,854,o),
(201,796,o),
(201,711,qs),
(201,672,o),
(196,598,o),
(192,526,o),
(192,487,qs),
(192,465,o),
(207,426,o),
(248,400,o),
(286,400,q),
(286,360,l),
(248,360,o),
(207,334,o),
(192,295,o),
(192,273,qs),
(192,236,o),
(196,163,o),
(201,89,o),
(201,49,qs),
(201,-35,o),
(139,-94,o),
(78,-94,qs),
(38,-94,l)
);
}
);
vertWidth = 1000;
width = 486;
}
);
note = uniFF5D;
unicode = 65373;
},
{
glyphname = cornerbracketleft;
lastChange = "2023-08-27 13:38:09 +0000";
layers = (
{
layerId = m01;
shapes = (
{
closed = 1;
nodes = (
(248,191,l),
(248,796,l),
(506,796,l),
(506,842,l),
(200,842,l),
(200,191,l)
);
}
);
vertWidth = 1000;
width = 544;
}
);
note = uni300C;
unicode = 12300;
},
{
glyphname = cornerbracketright;
lastChange = "2023-08-27 13:38:20 +0000";
layers = (
{
layerId = m01;
shapes = (
{
closed = 1;
nodes = (
(296,569,l),
(296,-36,l),
(38,-36,l),
(38,-82,l),
(344,-82,l),
(344,569,l)
);
}
);
vertWidth = 1000;
width = 544;
}
);
note = uni300D;
unicode = 12301;
},
{
glyphname = dblanglebracketleft;
lastChange = "2023-08-27 13:38:09 +0000";
layers = (
{
layerId = m01;
shapes = (
{
closed = 1;
nodes = (
(473,829,l),
(436,842,l),
(200,380,l),
(436,-82,l),
(473,-69,l),
(242,380,l)
);
},
{
closed = 1;
nodes = (
(622,829,l),
(585,842,l),
(349,380,l),
(585,-82,l),
(622,-69,l),
(391,380,l)
);
}
);
vertWidth = 1000;
width = 664;
}
);
note = uni300A;
unicode = 12298;
},
{
glyphname = dblanglebracketright;
lastChange = "2023-08-27 13:38:20 +0000";
layers = (
{
layerId = m01;
shapes = (
{
closed = 1;
nodes = (
(464,380,l),
(227,842,l),
(190,829,l),
(421,380,l),
(190,-69,l),
(227,-82,l)
);
},
{
closed = 1;
nodes = (
(315,380,l),
(78,842,l),
(41,829,l),
(272,380,l),
(41,-69,l),
(78,-82,l)
);
}
);
vertWidth = 1000;
width = 664;
}
);
note = uni300B;
unicode = 12299;
},
{
glyphname = tortoiseshellbracketleft;
lastChange = "2023-08-27 13:38:09 +0000";
layers = (
{
layerId = m01;
shapes = (
{
closed = 1;
nodes = (
(429,-58,l),
(247,59,l),
(247,701,l),
(429,818,l),
(405,854,l),
(200,720,l),
(200,40,l),
(405,-94,l)
);
}
);
vertWidth = 1000;
width = 476;
}
);
note = uni3014;
unicode = 12308;
},
{
glyphname = tortoiseshellbracketright;
lastChange = "2023-08-27 13:38:20 +0000";
layers = (
{
layerId = m01;
shapes = (
{
closed = 1;
nodes = (
(47,-58,l),
(229,59,l),
(229,701,l),
(47,818,l),
(71,854,l),
(276,720,l),
(276,40,l),
(71,-94,l)
);
}
);
vertWidth = 1000;
width = 476;
}
);
note = uni3015;
unicode = 12309;
},
{
glyphname = whitecornerbracketleft;
lastChange = "2023-08-27 13:38:09 +0000";
layers = (
{
layerId = m01;
shapes = (
{
closed = 1;
nodes = (
(563,842,l),
(200,842,l),
(200,179,l),
(358,179,l),
(358,699,l),
(563,699,l)
);
},
{
closed = 1;
nodes = (
(537,726,l),
(332,726,l),
(332,206,l),
(227,206,l),
(227,816,l),
(537,816,l)
);
}
);
vertWidth = 1000;
width = 601;
}
);
note = uni300E;
unicode = 12302;
},
{
glyphname = whitecornerbracketright;
lastChange = "2023-08-27 13:38:20 +0000";
layers = (
{
layerId = m01;
shapes = (
{
closed = 1;
nodes = (
(38,-82,l),
(401,-82,l),
(401,581,l),
(243,581,l),
(243,61,l),
(38,61,l)
);
},
{
closed = 1;
nodes = (
(64,34,l),
(269,34,l),
(269,554,l),
(374,554,l),
(374,-56,l),
(64,-56,l)
);
}
);
vertWidth = 1000;
width = 601;
}
);
note = uni300F;
unicode = 12303;
},
{
glyphname = whitelenticularbracketleft;
lastChange = "2023-08-27 13:38:09 +0000";
layers = (
{
layerId = m01;
shapes = (
{
closed = 1;
nodes = (
(464,-29,o),
(346,96,o),
(280,270,o),
(280,380,qs),
(280,491,o),
(346,664,o),
(464,790,o),
(543,825,q),
(543,842,l),
(200,842,l),
(200,-82,l),
(543,-82,l),
(543,-65,l)
);
},
{
closed = 1;
nodes = (
(223,820,l),
(483,820,l),
(447,798,o),
(368,725,o),
(301,618,o),
(258,474,o),
(258,380,qs),
(258,286,o),
(301,142,o),
(368,35,o),
(447,-38,o),
(483,-60,q),
(223,-60,l)
);
}
);
vertWidth = 1000;
width = 581;
}
);
note = uni3016;
unicode = 12310;
},
{
glyphname = whitelenticularbracketright;
lastChange = "2023-08-27 13:38:20 +0000";
layers = (
{
layerId = m01;
shapes = (
{
closed = 1;
nodes = (
(381,-82,l),
(381,842,l),
(38,842,l),
(38,825,l),
(117,790,o),
(235,664,o),
(301,490,o),
(301,380,qs),
(301,270,o),
(235,96,o),
(117,-29,o),
(38,-65,q),
(38,-82,l)
);
},
{
closed = 1;
nodes = (
(134,-38,o),
(213,35,o),
(280,142,o),
(323,286,o),
(323,380,qs),
(323,474,o),
(280,618,o),
(213,725,o),
(134,798,o),
(98,820,q),
(358,820,l),
(358,-60,l),
(98,-60,l)
);
}
);
vertWidth = 1000;
width = 581;
}
);
note = uni3017;
unicode = 12311;
},
{
glyphname = anglebracketleft.vert;
lastChange = "2023-08-27 13:38:48 +0000";
layers = (
{
layerId = m01;
shapes = (
{
closed = 1;
nodes = (
(942,335,l),
(962,377,l),
(500,680,l),
(38,377,l),
(58,335,l),
(500,625,l)
);
}
);
vertWidth = 596;
width = 1000;
}
);
note = uniFE3F;
unicode = 65087;
},
{
glyphname = anglebracketright.vert;
lastChange = "2023-08-27 13:38:53 +0000";
layers = (
{
layerId = m01;
shapes = (
{
closed = 1;
nodes = (
(58,829,l),
(38,787,l),
(500,484,l),
(962,787,l),
(942,829,l),
(500,539,l)
);
}
);
vertWidth = 596;
width = 1000;
}
);
note = uniFE40;
unicode = 65088;
},
{
glyphname = blacklenticularbracketleft.vert;
lastChange = "2023-08-27 13:38:58 +0000";
layers = (
{
layerId = m01;
shapes = (
{
closed = 1;
nodes = (
(962,680,l),
(38,680,l),
(38,388,l),
(43,388,l),
(89,443,o),
(226,532,o),
(400,586,o),
(500,586,qs),
(601,586,o),
(774,532,o),
(912,443,o),
(957,388,q),
(962,388,l)
);
}
);
vertWidth = 530;
width = 1000;
}
);
note = uniFE3B;
unicode = 65083;
},
{
glyphname = blacklenticularbracketright.vert;
lastChange = "2023-08-27 13:39:03 +0000";
layers = (
{
layerId = m01;
shapes = (
{
closed = 1;
nodes = (
(962,842,l),
(957,842,l),
(912,788,o),
(774,698,o),
(601,644,o),
(500,644,qs),
(400,644,o),
(226,698,o),
(89,788,o),
(43,842,q),
(38,842,l),
(38,550,l),
(962,550,l)
);
}
);
vertWidth = 530;
width = 1000;
}
);
note = uniFE3C;
unicode = 65084;
},
{
glyphname = bracketleft.full;
lastChange = "2023-08-27 13:38:09 +0000";
layers = (
{
layerId = m01;
shapes = (
{
closed = 1;
nodes = (
(451,-82,l),
(451,-46,l),
(246,-46,l),
(246,806,l),
(451,806,l),
(451,842,l),
(200,842,l),
(200,-82,l)
);
}
);
vertWidth = 1000;
width = 489;
}
);
note = uniFF3B;
unicode = 65339;
},
{
glyphname = bracketright.full;
lastChange = "2023-08-27 13:38:20 +0000";
layers = (
{
layerId = m01;
shapes = (
{
closed = 1;
nodes = (
(38,-82,l),
(38,-46,l),
(243,-46,l),
(243,806,l),
(38,806,l),
(38,842,l),
(289,842,l),
(289,-82,l)
);
}
);
vertWidth = 1000;
width = 489;
}
);
note = uniFF3D;
unicode = 65341;
},
{
glyphname = cornerbracketleft.vert;
lastChange = "2023-08-27 13:39:08 +0000";
layers = (
{
layerId = m01;
shapes = (
{
closed = 1;
nodes = (
(261,633,l),
(927,633,l),
(927,374,l),
(975,374,l),
(975,680,l),
(261,680,l)
);
}
);
vertWidth = 544;
width = 1000;
}
);
note = uniFE41;
unicode = 65089;
},
{
glyphname = cornerbracketright.vert;
lastChange = "2023-08-27 13:39:14 +0000";
layers = (
{
layerId = m01;
shapes = (
{
closed = 1;
nodes = (
(739,580,l),
(73,580,l),
(73,839,l),
(25,839,l),
(25,533,l),
(739,533,l)
);
}
);
vertWidth = 547;
width = 1000;
}
);
note = uniFE42;
unicode = 65090;
},
{
glyphname = dblanglebracketleft.vert;
lastChange = "2023-08-27 13:39:19 +0000";
layers = (
{
layerId = m01;
shapes = (
{
closed = 1;
nodes = (
(949,406,l),
(962,443,l),
(500,680,l),
(38,443,l),
(51,406,l),
(500,637,l)
);
},
{
closed = 1;
nodes = (
(949,257,l),
(962,294,l),
(500,531,l),
(38,294,l),
(51,257,l),
(500,488,l)
);
}
);
vertWidth = 664;
width = 1000;
}
);
note = uniFE3D;
unicode = 65085;
},
{
glyphname = dblanglebracketright.vert;
lastChange = "2023-08-27 13:39:24 +0000";
layers = (
{
layerId = m01;
shapes = (
{
closed = 1;
nodes = (
(51,690,l),
(38,653,l),
(500,416,l),
(962,653,l),
(949,690,l),
(500,459,l)
);
},
{
closed = 1;
nodes = (
(51,839,l),
(38,802,l),
(500,565,l),
(962,802,l),
(949,839,l),
(500,608,l)
);
}
);
vertWidth = 664;
width = 1000;
}
);
note = uniFE3E;
unicode = 65086;
},
{
glyphname = parenleft.full;
lastChange = "2023-08-27 13:38:09 +0000";
layers = (
{
layerId = m01;
shapes = (
{
closed = 1;
nodes = (
(247,121,o),
(337,-27,o),
(400,-93,q),
(439,-69,l),
(378,-6,o),
(292,137,o),
(249,295,o),
(249,380,qs),
(249,466,o),
(292,623,o),
(378,767,o),
(439,829,q),
(400,853,l),
(337,788,o),
(247,639,o),
(200,473,o),
(200,380,qs),
(200,288,o)
);
}
);
vertWidth = 1000;
width = 486;
}
);
note = uniFF08;
unicode = 65288;
},
{
glyphname = parenright.full;
lastChange = "2023-08-27 13:38:20 +0000";
layers = (
{
layerId = m01;
shapes = (
{
closed = 1;
nodes = (
(239,639,o),
(150,788,o),
(86,853,q),
(47,829,l),
(108,767,o),
(194,623,o),
(237,466,o),
(237,380,qs),
(237,295,o),
(194,137,o),
(108,-6,o),
(47,-69,q),
(86,-93,l),
(150,-27,o),
(239,121,o),
(286,288,o),
(286,380,qs),
(286,473,o)
);
}
);
vertWidth = 1000;
width = 486;
}
);
note = uniFF09;
unicode = 65289;
},
{
glyphname = tortoiseshellbracketleft.vert;
lastChange = "2023-08-27 13:39:30 +0000";
layers = (
{
layerId = m01;
shapes = (
{
closed = 1;
nodes = (
(62,451,l),
(179,633,l),
(821,633,l),
(938,451,l),
(974,475,l),
(840,680,l),
(160,680,l),
(26,475,l)
);
}
);
vertWidth = 476;
width = 1000;
}
);
note = uniFE39;
unicode = 65081;
},
{
glyphname = tortoiseshellbracketright.vert;
lastChange = "2023-08-27 13:39:35 +0000";
layers = (
{
layerId = m01;
shapes = (
{
closed = 1;
nodes = (
(62,833,l),
(179,651,l),
(821,651,l),
(938,833,l),
(974,809,l),
(840,604,l),
(160,604,l),
(26,809,l)
);
}
);
vertWidth = 476;
width = 1000;
}
);
note = uniFE3A;
unicode = 65082;
},
{
glyphname = whitecornerbracketleft.vert;
lastChange = "2023-08-27 13:39:41 +0000";
layers = (
{
layerId = m01;
shapes = (
{
closed = 1;
nodes = (
(962,333,l),
(962,680,l),
(299,680,l),
(299,537,l),
(809,537,l),
(809,333,l)
);
},
{
closed = 1;
nodes = (
(836,359,l),
(836,564,l),
(326,564,l),
(326,654,l),
(936,654,l),
(936,359,l)
);
}
);
vertWidth = 585;
width = 1000;
}
);
note = uniFE43;
unicode = 65091;
},
{
glyphname = whitecornerbracketright.vert;
lastChange = "2023-08-27 13:39:46 +0000";
layers = (
{
layerId = m01;
shapes = (
{
closed = 1;
nodes = (
(38,842,l),
(38,495,l),
(701,495,l),
(701,638,l),
(191,638,l),
(191,842,l)
);
},
{
closed = 1;
nodes = (
(164,816,l),
(164,611,l),
(674,611,l),
(674,521,l),
(64,521,l),
(64,816,l)
);
}
);
vertWidth = 585;
width = 1000;
}
);
note = uniFE44;
unicode = 65092;
},
{
glyphname = whitelenticularbracketleft.vert;
lastChange = "2023-08-27 13:39:52 +0000";
layers = (
{
layerId = m01;
shapes = (
{
closed = 1;
nodes = (
(91,416,o),
(216,534,o),
(390,600,o),
(500,600,qs),
(611,600,o),
(784,534,o),
(910,416,o),
(945,337,q),
(962,337,l),
(962,680,l),
(38,680,l),
(38,337,l),
(55,337,l)
);
},
{
closed = 1;
nodes = (
(940,657,l),
(940,397,l),
(918,433,o),
(845,512,o),
(738,579,o),
(594,622,o),
(500,622,qs),
(406,622,o),
(262,579,o),
(155,512,o),
(82,433,o),
(60,397,q),
(60,657,l)
);
}
);
vertWidth = 581;
width = 1000;
}
);
note = uniFE17;
unicode = 65047;
},
{
glyphname = whitelenticularbracketright.vert;
lastChange = "2023-08-27 13:39:57 +0000";
layers = (
{
layerId = m01;
shapes = (
{
closed = 1;
nodes = (
(38,499,l),
(962,499,l),
(962,842,l),
(945,842,l),
(910,763,o),
(784,645,o),
(610,579,o),
(500,579,qs),
(390,579,o),
(216,645,o),
(91,763,o),
(55,842,q),
(38,842,l)
);
},
{
closed = 1;
nodes = (
(82,746,o),
(155,667,o),
(262,600,o),
(406,557,o),
(500,557,qs),
(594,557,o),
(738,600,o),
(845,667,o),
(918,746,o),
(940,782,q),
(940,522,l),
(60,522,l),
(60,782,l)
);
}
);
vertWidth = 581;
width = 1000;
}
);
note = uniFE18;
unicode = 65048;
},
{
glyphname = braceleft.full.vert;
lastChange = "2023-08-27 13:40:03 +0000";
layers = (
{
layerId = m01;
shapes = (
{
closed = 1;
nodes = (
(62,432,l),
(62,466,ls),
(62,515,o),
(117,548,o),
(173,548,qs),
(226,548,o),
(323,541,o),
(382,541,qs),
(432,541,o),
(488,567,o),
(498,600,q),
(502,600,l),
(512,567,o),
(569,541,o),
(618,541,qs),
(677,541,o),
(774,548,o),
(827,548,qs),
(884,548,o),
(938,515,o),
(938,466,qs),
(938,432,l),
(974,432,l),
(974,472,ls),
(974,533,o),
(916,595,o),
(831,595,qs),
(792,595,o),
(718,590,o),
(646,586,o),
(607,586,qs),
(585,586,o),
(546,601,o),
(520,642,o),
(520,680,q),
(480,680,l),
(480,642,o),
(454,601,o),
(415,586,o),
(393,586,qs),
(356,586,o),
(283,590,o),
(209,595,o),
(169,595,qs),
(85,595,o),
(26,533,o),
(26,472,qs),
(26,432,l)
);
}
);
vertWidth = 486;
width = 1000;
}
);
note = uniFE37;
unicode = 65079;
},
{
glyphname = braceright.full.vert;
lastChange = "2023-08-27 13:40:08 +0000";
layers = (
{
layerId = m01;
shapes = (
{
closed = 1;
nodes = (
(938,842,l),
(938,808,ls),
(938,759,o),
(884,726,o),
(827,726,qs),
(774,726,o),
(677,733,o),
(618,733,qs),
(569,733,o),
(512,707,o),
(502,674,q),
(498,674,l),
(488,707,o),
(432,733,o),
(382,733,qs),
(323,733,o),
(226,726,o),
(173,726,qs),
(116,726,o),
(62,759,o),
(62,808,qs),
(62,842,l),
(26,842,l),
(26,802,ls),
(26,741,o),
(85,679,o),
(169,679,qs),
(209,679,o),
(282,683,o),
(355,688,o),
(393,688,qs),
(415,688,o),
(454,673,o),
(480,633,o),
(480,594,q),
(520,594,l),
(520,633,o),
(546,673,o),
(585,688,o),
(607,688,qs),
(645,688,o),
(717,683,o),
(791,679,o),
(831,679,qs),
(915,679,o),
(974,741,o),
(974,802,qs),
(974,842,l)
);
}
);
vertWidth = 486;
width = 1000;
}
);
note = uniFE38;
unicode = 65080;
},
{
glyphname = bracketleft.full.vert;
lastChange = "2023-08-27 13:40:14 +0000";
layers = (
{
layerId = m01;
shapes = (
{
closed = 1;
nodes = (
(38,429,l),
(74,429,l),
(74,634,l),
(926,634,l),
(926,429,l),
(962,429,l),
(962,680,l),
(38,680,l)
);
}
);
vertWidth = 489;
width = 1000;
}
);
note = uniFE47;
unicode = 65095;
},
{
glyphname = bracketright.full.vert;
lastChange = "2023-08-27 13:40:19 +0000";
layers = (
{
layerId = m01;
shapes = (
{
closed = 1;
nodes = (
(38,842,l),
(74,842,l),
(74,637,l),
(926,637,l),
(926,842,l),
(962,842,l),
(962,591,l),
(38,591,l)
);
}
);
vertWidth = 489;
width = 1000;
}
);
note = uniFE48;
unicode = 65096;
},
{
glyphname = parenleft.full.vert;
lastChange = "2023-08-27 13:40:25 +0000";
layers = (
{
layerId = m01;
shapes = (
{
closed = 1;
nodes = (
(241,633,o),
(93,544,o),
(27,480,q),
(51,441,l),
(114,502,o),
(257,588,o),
(415,631,o),
(500,631,qs),
(586,631,o),
(743,588,o),
(887,502,o),
(949,441,q),
(973,480,l),
(908,544,o),
(759,633,o),
(593,680,o),
(500,680,qs),
(408,680,o)
);
}
);
vertWidth = 486;
width = 1000;
}
);
note = uniFE35;
unicode = 65077;
},
{
glyphname = parenright.full.vert;
lastChange = "2023-08-27 13:40:30 +0000";
layers = (
{
layerId = m01;
shapes = (
{
closed = 1;
nodes = (
(759,641,o),
(908,731,o),
(973,794,q),
(949,833,l),
(887,772,o),
(743,686,o),
(586,643,o),
(500,643,qs),
(415,643,o),
(257,686,o),
(114,772,o),
(51,833,q),
(27,794,l),
(93,731,o),
(241,641,o),
(408,594,o),
(500,594,qs),
(593,594,o)
);
}
